<?xml version="1.0" standalone="no"?>
<!DOCTYPE svg PUBLIC "-//W3C//DTD SVG 20010904//EN"
 "http://www.w3.org/TR/2001/REC-SVG-20010904/DTD/svg10.dtd">
<svg version="1.0" xmlns="http://www.w3.org/2000/svg"
 width="1144.000000pt" height="817.000000pt" viewBox="0 0 1144.000000 817.000000"
 preserveAspectRatio="xMidYMid meet">

<g transform="translate(0.000000,817.000000) scale(0.100000,-0.100000)"
fill="#000000" stroke="none">
<path d="M7123 5440 c30 -54 17 -65 -78 -65 -63 -1 -79 -4 -96 -22 l-21 -21
27 -45 26 -46 -41 -21 c-23 -12 -76 -30 -117 -41 -42 -10 -78 -21 -80 -23 -2
-2 17 -22 43 -44 103 -92 381 -158 540 -130 l41 8 -18 -38 c-16 -31 -17 -44
-8 -77 20 -72 155 -176 211 -162 35 9 175 141 199 188 36 71 25 118 -52 229
-37 54 -48 84 -70 203 -23 123 -128 181 -194 107 -24 -28 -91 -60 -125 -60
-44 0 -100 20 -133 49 -17 15 -42 33 -54 39 l-21 12 21 -40z"/>
<path d="M3150 5420 c-44 -11 -60 -34 -60 -87 0 -80 -53 -124 -195 -163 -170
-46 -194 -89 -164 -295 21 -141 -11 -252 -115 -404 -31 -46 -63 -106 -72 -138
-16 -54 -15 -71 2 -181 l7 -43 -71 -70 c-80 -78 -160 -122 -263 -143 l-63 -12
35 -37 c21 -23 63 -50 109 -70 71 -31 75 -34 67 -57 -6 -18 28 -184 127 -625
75 -330 136 -612 136 -627 0 -41 18 -80 56 -118 l34 -36 2 -529 3 -530 58 -3
57 -3 0 526 0 525 410 0 410 0 0 -525 0 -525 60 0 60 0 0 523 0 522 40 22 40
21 0 -469 0 -469 65 0 65 0 0 160 0 160 90 0 c50 0 90 -3 90 -7 -1 -5 -7 -19
-15 -33 -23 -40 -19 -88 11 -115 35 -33 184 -108 268 -135 62 -21 82 -22 190
-17 180 9 272 44 278 107 4 37 -47 58 -173 70 -124 12 -180 31 -214 71 -53 63
-137 59 1140 59 l1165 0 0 -160 0 -160 70 0 70 0 0 258 0 258 -70 52 -70 52 0
-80 0 -80 -1130 0 -1130 0 0 -44 c0 -34 -4 -46 -17 -50 -34 -10 -198 -26 -275
-26 l-78 0 0 60 0 60 -100 0 -100 0 0 400 0 400 -66 0 -67 0 5 -75 5 -75 -534
0 c-418 0 -535 3 -538 13 -8 19 -265 1160 -265 1173 0 8 18 12 50 12 56 1 113
24 136 56 8 11 22 46 30 78 12 42 31 72 74 122 32 36 60 60 62 54 8 -22 55 78
68 142 19 104 56 155 123 170 70 15 232 -39 314 -105 31 -26 91 -67 134 -93
l78 -47 32 -85 c17 -47 38 -121 46 -165 22 -112 32 -135 64 -135 17 0 30 8 40
26 7 15 35 45 61 69 l47 43 -81 73 c-116 105 -149 151 -183 255 -27 80 -36 95
-89 145 l-59 57 7 55 7 54 -50 48 c-40 39 -51 56 -51 80 0 47 35 91 125 160
44 33 91 77 104 98 29 45 56 48 109 12 26 -18 50 -25 84 -25 120 0 175 149 94
254 -31 41 -72 67 -149 96 -41 15 -65 32 -84 58 -72 98 -131 140 -231 161 -60
12 -239 13 -292 1z"/>
<path d="M1785 4983 c-46 -112 -105 -324 -104 -370 0 -15 13 22 29 82 15 61
44 154 63 208 19 53 32 97 27 97 -4 0 -11 -8 -15 -17z"/>
<path d="M7515 4569 c-95 -97 -182 -169 -198 -164 -8 4 -19 16 -24 28 -9 20
-11 18 -37 -26 -42 -72 -94 -228 -112 -335 -18 -107 -14 -279 9 -387 l12 -60
179 -3 179 -2 -7 55 c-6 51 -5 55 16 59 24 5 243 26 269 26 11 0 14 -29 16
-163 3 -190 -5 -214 -83 -248 -43 -19 -53 -20 -177 -9 -139 12 -241 30 -318
54 l-46 14 -6 -91 c-3 -51 -12 -109 -19 -131 -11 -34 -10 -40 6 -51 10 -8 15
-19 11 -25 -11 -17 121 -71 215 -87 101 -18 132 -30 228 -90 81 -50 145 -73
203 -73 56 0 139 22 139 36 0 7 10 18 21 25 19 10 21 17 15 59 -26 197 -38
384 -46 700 -9 395 -15 444 -70 567 -49 109 -207 308 -275 349 -23 13 -44 24
-46 24 -3 0 -27 -23 -54 -51z"/>
<path d="M1665 4563 c-5 -10 -10 -90 -13 -179 -6 -229 20 -375 106 -589 11
-27 38 -95 60 -150 91 -228 129 -537 107 -872 -4 -71 -3 -83 6 -63 8 17 12
101 13 250 1 335 -30 503 -143 774 -33 77 -68 171 -80 208 -51 170 -72 386
-52 538 13 90 11 118 -4 83z"/>
<path d="M3060 3966 c0 -2 96 -91 213 -197 116 -106 227 -206 244 -222 18 -17
35 -28 38 -26 5 5 -480 449 -490 449 -3 0 -5 -2 -5 -4z"/>
<path d="M8264 3728 c-17 -18 -49 -149 -153 -613 -73 -324 -135 -598 -137
-607 -5 -17 -34 -18 -423 -18 l-417 0 -87 -57 c-48 -31 -87 -59 -87 -62 1 -3
29 -25 63 -49 l62 -43 423 0 422 1 0 -525 0 -525 55 0 55 0 0 531 0 531 39 39
c39 37 61 88 61 141 0 15 59 287 130 603 72 316 130 588 130 604 0 36 -29 61
-77 68 -31 4 -42 1 -59 -19z"/>
<path d="M3860 3165 c0 -76 2 -85 19 -85 10 0 39 -3 65 -6 l46 -7 0 92 0 91
-65 0 -65 0 0 -85z"/>
<path d="M6819 3103 l-1 -148 -211 -106 c-253 -127 -269 -141 -275 -249 -4
-61 -1 -75 22 -114 14 -25 40 -54 56 -66 l30 -21 0 33 c0 75 45 110 487 384
l192 119 25 73 c14 39 23 72 22 72 -2 0 -36 -15 -77 -34 -41 -18 -86 -36 -101
-40 l-28 -6 0 125 0 125 -70 0 -70 0 -1 -147z"/>
<path d="M9041 2778 c-12 -34 -20 -76 -20 -92 1 -22 3 -25 6 -11 3 11 15 53
28 93 28 88 15 97 -14 10z"/>
<path d="M1910 2647 c0 -42 -33 -234 -59 -340 -10 -42 -15 -80 -11 -82 13 -8
49 167 85 401 4 26 2 45 -4 49 -7 4 -11 -6 -11 -28z"/>
<path d="M9003 2635 c-3 -9 -3 -68 -1 -133 4 -108 8 -125 46 -222 70 -178 77
-214 76 -400 -1 -122 -7 -188 -21 -252 -10 -49 -16 -88 -12 -88 26 0 48 189
45 375 -3 185 3 157 -88 410 -29 82 -32 101 -32 207 -1 65 -2 118 -4 118 -1 0
-5 -7 -9 -15z"/>
<path d="M7570 1896 c0 -29 -69 -93 -132 -124 -35 -17 -97 -41 -139 -53 l-76
-22 -6 -76 c-6 -86 -26 -142 -64 -177 -51 -47 -53 -41 -54 169 l0 192 -55 43
-54 43 0 -331 0 -330 55 0 55 0 0 34 0 34 38 -14 c20 -7 48 -13 62 -13 22 1
21 2 -7 10 -18 5 -35 14 -39 20 -4 8 0 8 14 0 51 -27 165 0 317 76 78 39 177
107 214 147 13 14 27 23 32 21 4 -3 11 0 15 6 5 8 3 9 -6 4 -8 -5 -11 -3 -8 6
3 8 10 13 16 12 7 -2 9 4 5 14 -4 10 -2 14 4 10 6 -4 10 -1 10 6 -1 6 3 29 7
50 18 84 -36 169 -144 226 -47 25 -60 29 -60 17z"/>
<path d="M7689 1493 l-24 -28 28 24 c15 14 27 26 27 28 0 8 -8 1 -31 -24z"/>
<path d="M7639 1453 c-13 -16 -12 -17 4 -4 16 13 21 21 13 21 -2 0 -10 -8 -17
-17z"/>
<path d="M7590 1419 c-22 -18 -22 -19 -3 -10 12 6 25 16 28 21 9 15 3 12 -25
-11z"/>
<path d="M7490 1365 c-36 -19 -61 -34 -57 -35 10 0 127 59 127 65 0 7 2 8 -70
-30z"/>
<path d="M7390 1320 c-8 -5 -10 -10 -5 -10 6 0 17 5 25 10 8 5 11 10 5 10 -5
0 -17 -5 -25 -10z"/>
<path d="M7320 1295 c-19 -7 -28 -14 -20 -14 8 0 29 6 45 14 39 17 21 18 -25
0z"/>
<path d="M7258 1273 c7 -3 16 -2 19 1 4 3 -2 6 -13 5 -11 0 -14 -3 -6 -6z"/>
</g>
</svg>
